<?xml version="1.0" encoding="utf-8"?>
<!-- Generator: Adobe Illustrator 23.0.0, SVG Export Plug-In . SVG Version: 6.00 Build 0)  -->
<svg version="1.1" id="Layer_1" xmlns="http://www.w3.org/2000/svg" xmlns:xlink="http://www.w3.org/1999/xlink" x="0px" y="0px"
	 viewBox="0 0 120 120" style="enable-background:new 0 0 120 120;" xml:space="preserve">
<style type="text/css">
	.st0{fill:#D7B13A;}
	.st1{fill:#D7B13A;stroke:#FFFFFF;stroke-width:2;stroke-linecap:round;stroke-linejoin:round;stroke-miterlimit:10;}
	.st2{fill:none;stroke:#FFFFFF;stroke-width:2;stroke-linecap:round;stroke-linejoin:round;stroke-miterlimit:10;}
	.st3{fill:#FFFFFF;}
	.st4{fill:#005C86;stroke:#FFFFFF;stroke-width:2;stroke-linecap:round;stroke-linejoin:round;stroke-miterlimit:10;}
	.st5{fill:#FFFFFF;stroke:#005C86;stroke-width:2;stroke-linecap:round;stroke-linejoin:round;stroke-miterlimit:10;}
	.st6{fill:none;stroke:#FFFFFF;stroke-width:5;stroke-linecap:round;stroke-linejoin:round;stroke-miterlimit:10;}
	.st7{fill:none;stroke:#CF649D;stroke-width:5;stroke-linecap:round;stroke-linejoin:round;stroke-miterlimit:10;}
	.st8{fill:none;stroke:#C83787;stroke-width:5;stroke-linecap:round;stroke-linejoin:round;stroke-miterlimit:10;}
</style>
<g>
	<path class="st0" d="M-34.1,359.2c-4.1,0-7.5-3.6-7.5-7.4c0-4.1,3.4-7.4,7.5-7.4c4,0,7.5,3.3,7.5,7.4S-29.9,359.2-34.1,359.2z"/>
	<path class="st1" d="M-27.6,351.8c0-3.3-2.9-6.3-6.5-6.3"/>
	<path class="st1" d="M-40.6,351.8c0,3.6,2.9,6.5,6.5,6.5"/>
	<line class="st2" x1="-34.1" y1="345.5" x2="-34.1" y2="333.2"/>
	<line class="st2" x1="-34.1" y1="363.1" x2="-34.1" y2="358.2"/>
	<line class="st2" x1="-40.6" y1="351.8" x2="-27.6" y2="351.8"/>
</g>
<g>
	<g>
		<g>
			<g>
				<path class="st3" d="M-144.4,342L-144.4,342c-0.6,0-1-0.4-1-1v-23.4h-88.1c-0.6,0-1-0.4-1-1s0.4-1,1-1h89.1
					c0.3,0,0.5,0.1,0.7,0.3s0.3,0.4,0.3,0.7V341C-143.4,341.5-143.8,342-144.4,342z"/>
			</g>
			<g>
				<g>
					<path class="st3" d="M-197.3,342h-15.1c-0.2,0-0.4-0.1-0.6-0.2l-36.7-24.4c-0.3-0.2-0.4-0.5-0.4-0.8s0.2-0.6,0.4-0.8l36.7-24.4
						c0.2-0.1,0.4-0.2,0.6-0.2h15.1c0.4,0,0.8,0.3,1,0.7c0.1,0.4,0,0.9-0.4,1.1l-35.4,23.6l35.4,23.6c0.4,0.2,0.5,0.7,0.4,1.1
						C-196.5,341.7-196.9,342-197.3,342z M-212.1,340h11.5l-33.9-22.6c-0.3-0.2-0.4-0.5-0.4-0.8s0.2-0.6,0.4-0.8l33.9-22.6h-11.5
						l-35.2,23.4L-212.1,340z"/>
				</g>
			</g>
		</g>
	</g>
</g>
<polygon class="st3" points="255.6,229 255.6,224.8 169,222.3 183.1,197.2 138.3,227.2 183.1,257.2 168.8,232 "/>
<polygon class="st4" points="-131.9,211.9 -131.9,203.3 -216.4,203.3 -186.3,183.3 -201.4,183.3 -238.1,207.7 -201.4,232.1 
	-186.3,232.1 -216.7,211.9 "/>
<rect x="16.7" y="402.3" class="st5" width="85.3" height="69.7"/>
<line class="st6" x1="13.3" y1="61.1" x2="106.5" y2="61.1"/>
<line class="st6" x1="13.3" y1="29.6" x2="106.5" y2="29.6"/>
<line class="st6" x1="13.3" y1="92.1" x2="106.5" y2="92.1"/>
<g>
	<polyline class="st7" points="-127,-90.9 -161.6,-65.2 -127,-39.5 	"/>
</g>
<line class="st7" x1="-157.5" y1="-65.2" x2="-64.3" y2="-65.2"/>
<line class="st8" x1="180.7" y1="60" x2="273.9" y2="60"/>
<line class="st8" x1="227.1" y1="106.2" x2="227.1" y2="13"/>
</svg>
